# xmcd
#
# Track frame offsets:
#	150
#	16575
#	33647
#	49550
#	67202
#	79972
#	95347
#	108887
#	121935
#	137522
#
# Disc length: 2171 seconds
#
# Revision: 4
# Processed by: cddbd v1.5.2PL0 Copyright (c) Steve Scherf et al.
# Submitted via: audiograbber 1.83.01
#
DISCID=7a08790a
DTITLE=Billy Dean - Fire In The Dark
DYEAR=1993
DGENRE=Oldies
TTITLE0=Tryin' To Hide A Fire In The Dark
TTITLE1=When A Women Cries
TTITLE2=That's What I Like About Love
TTITLE3=I Wanna Take Care Of You
TTITLE4=Only A Woman Knows
TTITLE5=We Just Disagree
TTITLE6=Two Of The Lucky Ones
TTITLE7=I'm Not Built That Way
TTITLE8=Give Me All The Pieces
TTITLE9=Steam Roller
EXTD=
EXTT0=
EXTT1=
EXTT2=
EXTT3=
EXTT4=
EXTT5=
EXTT6=
EXTT7=
EXTT8=
EXTT9=
PLAYORDER=
